<?xml version="1.0" standalone="no"?>
<!DOCTYPE svg PUBLIC "-//W3C//DTD SVG 20010904//EN"
 "http://www.w3.org/TR/2001/REC-SVG-20010904/DTD/svg10.dtd">
<svg version="1.0" xmlns="http://www.w3.org/2000/svg"
 width="300.000000pt" height="300.000000pt" viewBox="0 0 300.000000 300.000000"
 preserveAspectRatio="xMidYMid meet">
<metadata>
Created by potrace 1.11, written by Peter Selinger 2001-2013
</metadata>
<g transform="translate(0.000000,300.000000) scale(0.100000,-0.100000)"
fill="#000000" stroke="none">
<path d="M452 2558 l3 -43 1045 0 1045 0 3 43 3 42 -1051 0 -1051 0 3 -42z"/>
<path d="M742 2420 c-75 -11 -172 -62 -222 -116 -51 -55 -97 -151 -106 -221
l-7 -53 47 0 c44 0 46 1 46 30 0 43 33 123 69 169 20 26 57 52 99 73 57 28 77
33 137 32 118 -1 217 -62 269 -167 36 -71 34 -93 -8 -101 -105 -20 -223 -117
-275 -226 l-26 -55 -3 -415 c-3 -293 0 -431 8 -470 33 -155 163 -273 327 -300
206 -34 419 128 440 335 l6 55 -41 0 c-37 0 -42 -3 -47 -27 -26 -131 -76 -202
-173 -250 -81 -40 -183 -40 -264 0 -81 40 -144 118 -162 203 -7 30 -5 32 31
37 100 16 216 108 265 209 45 91 50 157 43 572 -6 403 -9 426 -60 505 -55 86
-163 162 -250 176 -76 12 -90 13 -143 5z m368 -565 l0 -125 -130 0 c-102 0
-130 3 -130 13 0 8 14 42 31 75 42 86 138 160 207 162 22 0 22 -2 22 -125z m0
-345 l0 -130 -130 0 -130 0 0 130 0 130 130 0 130 0 0 -130z m-10 -237 c0 -33
-48 -118 -86 -155 -40 -37 -115 -77 -146 -78 -16 0 -18 13 -18 125 l0 125 125
0 c112 0 125 -2 125 -17z"/>
<path d="M1280 2030 l0 -350 45 0 45 0 0 350 0 350 -45 0 -45 0 0 -350z"/>
<path d="M1800 2100 c0 -232 -3 -286 -15 -310 -41 -78 -169 -80 -221 -3 -14
22 -19 52 -22 136 l-4 107 -39 0 -39 0 0 -112 c0 -130 15 -174 73 -225 98 -86
250 -64 324 49 l28 41 3 299 3 298 -46 0 -45 0 0 -280z"/>
<path d="M1980 2104 c0 -314 4 -338 65 -399 107 -107 276 -78 347 59 31 60 23
161 -17 217 -42 59 -102 89 -179 89 -34 -1 -72 -7 -86 -15 -14 -8 -28 -14 -32
-15 -5 0 -8 77 -8 170 l0 170 -45 0 -45 0 0 -276z"/>
<path d="M2500 2030 l0 -350 45 0 45 0 0 350 0 350 -45 0 -45 0 0 -350z"/>
<path d="M1850 1338 l0 -44 59 -12 c75 -16 146 -63 188 -126 42 -61 56 -115
51 -191 -9 -137 -106 -246 -248 -276 l-50 -11 0 -44 c0 -41 2 -44 23 -40 12 3
40 8 61 11 88 14 189 86 244 173 153 239 4 554 -281 597 l-47 7 0 -44z"/>
<path d="M1630 991 l0 -351 45 0 45 0 -2 348 -3 347 -42 3 -43 3 0 -350z"/>
<path d="M810 465 l0 -45 695 0 695 0 0 45 0 45 -695 0 -695 0 0 -45z"/>
</g>
</svg>
